# xmcd CD database file
#
# Track frame offsets:
#	150
#	15840
#	38019
#	55744
#	74049
#	97374
#	117707
#	134931
#	154759
#	165312
#	184716
#
# Disc length: 2761 seconds
#
# Revision: 0
# Processed by: cddbd v1.5.1PL0 Copyright (c) Steve Scherf et al.
# Submitted via: CDex 1.50Beta7
#
DISCID=9b0ac70b
DTITLE=大塚愛 - Love Punch
DYEAR=1900
DGENRE=JPop
TTITLE0=Pretty Voice
TTITLE1=桃ノ花ビラ
TTITLE2=さくらんぼ
TTITLE3=Girly
TTITLE4=雨の中のメロディー
TTITLE5=しゃぼん玉
TTITLE6=石川大阪友好条約
TTITLE7=片想いダイヤル
TTITLE8=ハニー
TTITLE9=甘えんぼ
TTITLE10=Always Together
EXTD=
EXTT0=
EXTT1=
EXTT2=
EXTT3=
EXTT4=
EXTT5=
EXTT6=
EXTT7=
EXTT8=
EXTT9=
EXTT10=
PLAYORDER=
